# xmcd CD database file
#
# Track frame offsets:
#	150
#	19872
#	48106
#	71652
#	101184
#	120135
#	145251
#	162126
#	189541
#	200113
#
# Disc length: 2928 seconds
#
# Revision: 0
# Processed by: cddbd v1.5PL3 Copyright (c) Steve Scherf et al.
# Submitted via: CDex 1.51
#
DISCID=880b6e0a
DTITLE=Grant Levin - The Bust
DYEAR=2003
DGENRE=Jazz
TTITLE0=Segment
TTITLE1=Brazilian Dreams
TTITLE2=CCC
TTITLE3=Windows
TTITLE4=Inner Urge
TTITLE5=Insatiable/Unquity Road
TTITLE6=The Bust
TTITLE7=Midnight Voyage
TTITLE8=Six Million
TTITLE9=Steeplechase?Crazeology
EXTD=YEAR: 2003
EXTT0=
EXTT1=
EXTT2=
EXTT3=
EXTT4=
EXTT5=
EXTT6=
EXTT7=
EXTT8=
EXTT9=
PLAYORDER=
